# xmcd
#
# Track frame offsets:
#	150
#	10931
#	16805
#	24911
#	36773
#	42909
#	47251
#	51604
#	58789
#	62557
#	73567
#	78681
#	83339
#	87532
#	92856
#	104775
#	117777
#	125585
#	141365
#	161656
#	179674
#	191004
#	209965
#	225711
#	231852
#	247467
#	260925
#	274160
#	286592
#	302628
#	318170
#	331968
#
# Disc length: 4622 seconds
#
# Revision: 0
# Processed by: cddbd v1.5.2PL0 Copyright (c) Steve Scherf et al.
# Submitted via: EasyCDDAExtractor 16.0.6.1
#
DISCID=dc120c20
DTITLE=Χατζής Κώστας - Κώστας Χατζής 2
DYEAR=2013
DGENRE=Έντεχνη
TTITLE0=Χατζής Κώστας - Έφυγε η αγάπη μου [Μ. Πλέσσας-Κ. Πρετεντέρης]
TTITLE1=Χατζής Κώστας - Βαρκαρόλα [Σ. Ξαρχάκος-Βαγγ. Γκούφας]
TTITLE2=Χατζής Κώστας - Σε πότισα ροδόσταμο [Μ. Θεοδωράκης-Ν. Γκάτσος]
TTITLE3=Χατζής Κώστας - Άρνησις [Μ. Θεοδωράκης-Γ. Σεφέρης]
TTITLE4=Χατζής Κώστας - Φτωχολογιά [Σ. Ξαρχάκος-Λ. Παπαδόπουλος]
TTITLE5=Χατζής Κώστας - Μη μιλάς άλλο γι' αγάπη [Διον. Σαββόπουλος]
TTITLE6=Χατζής Κώστας - Κάτι τρέχει [Κ. Χατζής-Σώτια Σώτου]
TTITLE7=Χατζής Κώστας - Κύριος κανείς [Κ. Χατζής-Σώτια Σώτου]
TTITLE8=Χατζής Κώστας - Στρατής [Κ. Χατζής-Σώτια Σώτου]
TTITLE9=Χατζής Κώστας - Δε βαριέσαι, αδελφέ [Κ. Χατζής-Σώτια Σώτου]
TTITLE10=Χατζής Κώστας - Χάσαμε [Κ. Χατζής-Φώντας Φιλιέρης]
TTITLE11=Χατζής Κώστας - Αντίο [Κ. Χατζής-Σώτια Σώτου]
TTITLE12=Χατζής Κώστας - Πάρε ένα κοχύλι απ' το Αιγαίο [Κ. Χατζής-Φώντας Φιλιέ
TTITLE12=ρης]
TTITLE13=Χατζής Κώστας - Δεν είμαι εγώ [Κ. Χατζής-Σώτια Σώτου]
TTITLE14=Χατζής Κώστας - Κι ύστερα [Σύνορα η αγάπη δε γνωρίζει [Κ. Χατζής-Σώτι
TTITLE14=α Σώτου]
TTITLE15=Χατζής Κώστας - Σύνορα η αγάπη δε γνωρίζει [Κ. Χατζής-Σώτια Σώτου]
TTITLE16=Χατζής Κώστας - Σπουδαίοι άνθρωποι αλλά...[Κ. Χατζής-Σώτια Σώτου]
TTITLE17=Χατζής Κώστας - Ένας Γερμανός και μιά Εβραία [Κ. Χατζής-Σώτια Σώτου]
TTITLE18=Χατζής Κώστας - Και λεγόμαστε άνθρωποι Κ. Χατζής-Λιάνα Βιτσιώρη]
TTITLE19=Χατζής Κώστας - Ραμόνα [Κ. Χατζής-Γιώργος Βραδυνός]
TTITLE20=Χατζής Κώστας - Όλη η ζωή είναι υπόθεση χαμόγελο [Κ. Χατζής-Σώτια Σώτ
TTITLE20=ου]
TTITLE21=Χατζής Κώστας - Απ' το αεροπλάνο [Κ. Χατζής-Σώτια Σώτου]
TTITLE22=Χατζίδη Αντωνία - Χορεύουν οι τσιγγάνοι [Κ. Χατζής-Σώτια Σώτου]
TTITLE23=Χατζής Αλέξανδρος - Meimasa Pierra Lehana [παραδ. τσιγγ. Ισπανίας]
TTITLE24=Χατζής Κώστας - Και τώρα μάθε με να ζω χωρίς εσένα[Κ. Χατζής-Σώτια Σώ
TTITLE24=του]
TTITLE25=Χατζής Κώστας - Σ' αγαπώ [Κ. Χατζής-Σώτια Σώτου]
TTITLE26=Χατζής Κώστας - Ένα αντίο [Κ. Χατζής-Σώτια Σώτου]
TTITLE27=Χατζής Κώστας - Μόνος [Κ. Χατζής-Σώτια Σώτου]
TTITLE28=Χατζής Κώστας - Πού είναι η αγάπη [Κ. Χατζής-Σώτια Σώτου]
TTITLE29=Χατζής Κώστας - Εξάρχεια [Κ. Χατζής-Σώτια Σώτου]
TTITLE30=Χατζής Κώστας - Μιλάω ελληνικά [Κ. Χατζής-Σώτια Σώτου]
TTITLE31=Χατζής Κώστας - Η συνάντηση [Κ. Χατζής-Σώτια Σώτου]
EXTD=
EXTT0=
EXTT1=
EXTT2=
EXTT3=
EXTT4=
EXTT5=
EXTT6=
EXTT7=
EXTT8=
EXTT9=
EXTT10=
EXTT11=
EXTT12=
EXTT13=
EXTT14=
EXTT15=
EXTT16=
EXTT17=
EXTT18=
EXTT19=
EXTT20=
EXTT21=
EXTT22=
EXTT23=
EXTT24=
EXTT25=
EXTT26=
EXTT27=
EXTT28=
EXTT29=
EXTT30=
EXTT31=
PLAYORDER=
